<svg width="1461" height="190" viewBox="0 0 1461 190" fill="none" xmlns="http://www.w3.org/2000/svg">
<path d="M16.109 66.9403V51.7273H87.7852V66.9403H61.0664V139H42.8278V66.9403H16.109ZM99.5891 139V51.7273H158.396V66.9403H118.041V87.7358H155.37V102.949H118.041V123.787H158.566V139H99.5891ZM173.066 139V51.7273H191.517V90.2074H192.668L224.074 51.7273H246.191L213.804 90.804L246.574 139H224.5L200.594 103.119L191.517 114.199V139H173.066ZM328.797 51.7273V139H312.86L274.891 84.071H274.252V139H255.8V51.7273H271.993L309.664 106.614H310.431V51.7273H328.797ZM362.494 51.7273V139H344.042V51.7273H362.494ZM377.675 139V51.7273H396.127V90.2074H397.277L428.684 51.7273H450.8L418.414 90.804L451.184 139H429.11L405.203 103.119L396.127 114.199V139H377.675ZM506.635 51.7273V139H488.183V51.7273H506.635ZM594.813 51.7273V139H578.875L540.907 84.071H540.267V139H521.816V51.7273H538.009L575.679 106.614H576.446V51.7273H594.813ZM610.058 139V51.7273H667.842V66.9403H628.51V87.7358H664.007V102.949H628.51V139H610.058ZM760.452 95.3636C760.452 104.881 758.648 112.977 755.04 119.653C751.461 126.33 746.574 131.429 740.381 134.952C734.216 138.446 727.284 140.193 719.586 140.193C711.83 140.193 704.87 138.432 698.705 134.909C692.54 131.386 687.668 126.287 684.088 119.611C680.509 112.935 678.719 104.852 678.719 95.3636C678.719 85.8466 680.509 77.75 684.088 71.0739C687.668 64.3977 692.54 59.3125 698.705 55.8182C704.87 52.2955 711.83 50.5341 719.586 50.5341C727.284 50.5341 734.216 52.2955 740.381 55.8182C746.574 59.3125 751.461 64.3977 755.04 71.0739C758.648 77.75 760.452 85.8466 760.452 95.3636ZM741.745 95.3636C741.745 89.1989 740.821 84 738.975 79.767C737.157 75.5341 734.586 72.3239 731.262 70.1364C727.938 67.9489 724.046 66.8551 719.586 66.8551C715.125 66.8551 711.233 67.9489 707.909 70.1364C704.586 72.3239 702 75.5341 700.154 79.767C698.336 84 697.426 89.1989 697.426 95.3636C697.426 101.528 698.336 106.727 700.154 110.96C702 115.193 704.586 118.403 707.909 120.591C711.233 122.778 715.125 123.872 719.586 123.872C724.046 123.872 727.938 122.778 731.262 120.591C734.586 118.403 737.157 115.193 738.975 110.96C740.821 106.727 741.745 101.528 741.745 95.3636ZM774.12 139V51.7273H808.552C815.143 51.7273 820.768 52.9062 825.427 55.2642C830.115 57.5937 833.68 60.9034 836.123 65.1932C838.595 69.4545 839.831 74.4687 839.831 80.2358C839.831 86.0312 838.581 91.017 836.081 95.1932C833.581 99.3409 829.958 102.523 825.214 104.739C820.498 106.955 814.788 108.062 808.083 108.062H785.029V93.233H805.1C808.623 93.233 811.549 92.75 813.879 91.7841C816.208 90.8182 817.941 89.3693 819.078 87.4375C820.243 85.5057 820.825 83.1051 820.825 80.2358C820.825 77.3381 820.243 74.8949 819.078 72.9062C817.941 70.9176 816.194 69.4119 813.836 68.3892C811.507 67.3381 808.566 66.8125 805.015 66.8125H792.572V139H774.12ZM821.251 99.2841L842.941 139H822.572L801.35 99.2841H821.251ZM852.87 51.7273H875.626L899.66 110.364H900.683L924.717 51.7273H947.473V139H929.575V82.196H928.851L906.265 138.574H894.078L871.493 81.983H870.768V139H852.87V51.7273ZM977.718 139H957.945L988.073 51.7273H1011.85L1041.94 139H1022.16L1000.3 71.6705H999.621L977.718 139ZM976.482 104.696H1023.19V119.099H976.482V104.696ZM1038.45 66.9403V51.7273H1110.13V66.9403H1083.41V139H1065.17V66.9403H1038.45ZM1140.38 51.7273V139H1121.93V51.7273H1140.38ZM1155.57 139V51.7273H1174.02V90.2074H1175.17L1206.57 51.7273H1228.69L1196.3 90.804L1229.07 139H1207L1183.09 103.119L1174.02 114.199V139H1155.57ZM1253.34 139H1233.57L1263.7 51.7273H1287.48L1317.56 139H1297.79L1275.93 71.6705H1275.25L1253.34 139ZM1252.11 104.696H1298.81V119.099H1252.11V104.696ZM1374.29 51.7273V139H1355.84V51.7273H1374.29ZM1407.92 51.7273V139H1389.47V51.7273H1407.92ZM1441.56 51.7273V139H1423.1V51.7273H1441.56Z" fill="white"/>
</svg>
