<svg width="1500" height="257" viewBox="0 0 1500 257" fill="none" xmlns="http://www.w3.org/2000/svg">
<path d="M5.84273 98.9379V83.0909H80.5054V98.9379H52.6733V174H33.6748V98.9379H5.84273ZM92.8012 174V83.0909H154.058V98.9379H112.022V120.6H150.907V136.447H112.022V158.153H154.236V174H92.8012ZM169.339 174V83.0909H188.56V123.174H189.758L222.473 83.0909H245.511L211.775 123.796L245.911 174H222.917L198.015 136.624L188.56 148.165V174H169.339ZM331.56 83.0909V174H314.958L275.407 116.782H274.741V174H255.521V83.0909H272.389L311.629 140.264H312.428V83.0909H331.56ZM366.66 83.0909V174H347.44V83.0909H366.66ZM382.474 174V83.0909H401.695V123.174H402.893L435.608 83.0909H458.646L424.91 123.796L459.045 174H436.052L411.149 136.624L401.695 148.165V174H382.474ZM516.807 83.0909V174H497.586V83.0909H516.807ZM608.659 83.0909V174H592.058L552.507 116.782H551.841V174H532.621V83.0909H549.488L588.728 140.264H589.527V83.0909H608.659ZM624.539 174V83.0909H684.731V98.9379H643.76V120.6H680.736V136.447H643.76V174H624.539ZM781.2 128.545C781.2 138.459 779.321 146.893 775.563 153.847C771.834 160.802 766.744 166.114 760.293 169.783C753.871 173.423 746.65 175.243 738.631 175.243C730.552 175.243 723.302 173.408 716.88 169.739C710.458 166.069 705.383 160.757 701.655 153.803C697.926 146.849 696.062 138.429 696.062 128.545C696.062 118.632 697.926 110.198 701.655 103.244C705.383 96.2893 710.458 90.9922 716.88 87.3523C723.302 83.6828 730.552 81.848 738.631 81.848C746.65 81.848 753.871 83.6828 760.293 87.3523C766.744 90.9922 771.834 96.2893 775.563 103.244C779.321 110.198 781.2 118.632 781.2 128.545ZM761.713 128.545C761.713 122.124 760.751 116.708 758.828 112.299C756.934 107.89 754.256 104.546 750.793 102.267C747.331 99.9884 743.277 98.8491 738.631 98.8491C733.985 98.8491 729.931 99.9884 726.468 102.267C723.006 104.546 720.313 107.89 718.389 112.299C716.495 116.708 715.548 122.124 715.548 128.545C715.548 134.967 716.495 140.383 718.389 144.792C720.313 149.201 723.006 152.545 726.468 154.824C729.931 157.103 733.985 158.242 738.631 158.242C743.277 158.242 747.331 157.103 750.793 154.824C754.256 152.545 756.934 149.201 758.828 144.792C760.751 140.383 761.713 134.967 761.713 128.545ZM795.438 174V83.0909H831.304C838.17 83.0909 844.029 84.319 848.883 86.7752C853.765 89.2018 857.479 92.6494 860.024 97.1179C862.599 101.557 863.886 106.78 863.886 112.787C863.886 118.824 862.584 124.018 859.98 128.368C857.376 132.688 853.603 136.003 848.661 138.311C843.748 140.619 837.8 141.773 830.816 141.773H806.802V126.326H827.709C831.378 126.326 834.426 125.823 836.853 124.817C839.28 123.811 841.085 122.301 842.269 120.289C843.482 118.277 844.088 115.776 844.088 112.787C844.088 109.769 843.482 107.224 842.269 105.152C841.085 103.081 839.265 101.512 836.809 100.447C834.382 99.3522 831.319 98.8047 827.62 98.8047H814.658V174H795.438ZM844.532 132.629L867.126 174H845.908L823.803 132.629H844.532ZM877.469 83.0909H901.173L926.208 144.17H927.274L952.309 83.0909H976.013V174H957.37V114.829H956.615L933.089 173.556H920.394L896.867 114.607H896.113V174H877.469V83.0909ZM1007.52 174H986.922L1018.3 83.0909H1043.07L1074.41 174H1053.82L1031.04 103.865H1030.33L1007.52 174ZM1006.23 138.267H1054.88V153.27H1006.23V138.267ZM1070.78 98.9379V83.0909H1145.45V98.9379H1117.61V174H1098.62V98.9379H1070.78ZM1176.96 83.0909V174H1157.74V83.0909H1176.96ZM1192.78 174V83.0909H1212V123.174H1213.2L1245.91 83.0909H1268.95L1235.21 123.796L1269.35 174H1246.35L1221.45 136.624L1212 148.165V174H1192.78ZM1294.63 174H1274.03L1305.41 83.0909H1330.18L1361.52 174H1340.93L1318.15 103.865H1317.44L1294.63 174ZM1293.34 138.267H1341.99V153.27H1293.34V138.267ZM1420.62 83.0909V174H1401.39V83.0909H1420.62ZM1455.65 83.0909V174H1436.43V83.0909H1455.65ZM1490.68 83.0909V174H1471.46V83.0909H1490.68Z" fill="white"/>
</svg>
